<svg width="454.027" height="493.352" viewBox="0 0 120.128 130.533" xml:space="preserve" xmlns:xlink="http://www.w3.org/1999/xlink" xmlns="http://www.w3.org/2000/svg"><defs><linearGradient id="a"><stop style="stop-color:#009ae4;stop-opacity:1" offset="0"/><stop style="stop-color:#00233e;stop-opacity:1" offset="1"/></linearGradient><linearGradient id="m"><stop style="stop-color:#fcfcfc;stop-opacity:.32857144" offset="0"/><stop style="stop-color:#fff;stop-opacity:.72857141" offset=".132"/><stop style="stop-color:#000;stop-opacity:1" offset="1"/></linearGradient><linearGradient id="k"><stop style="stop-color:#fff;stop-opacity:.54642856" offset="0"/><stop style="stop-color:#121212;stop-opacity:.79642856" offset="1"/></linearGradient><linearGradient id="j"><stop style="stop-color:#000;stop-opacity:1" offset="0"/><stop style="stop-color:#000;stop-opacity:0" offset="1"/></linearGradient><linearGradient id="d"><stop style="stop-color:#b3b3b3;stop-opacity:1" offset="0"/><stop style="stop-color:#4d4d4d;stop-opacity:.66785717" offset="1"/></linearGradient><linearGradient id="h"><stop style="stop-color:#009ae4;stop-opacity:1" offset="0"/><stop style="stop-color:#00233e;stop-opacity:1" offset=".75"/></linearGradient><linearGradient id="g"><stop style="stop-color:#000;stop-opacity:1" offset="0"/><stop style="stop-color:#000;stop-opacity:.3107143" offset="1"/></linearGradient><linearGradient id="f"><stop style="stop-color:#000;stop-opacity:1" offset="0"/><stop style="stop-color:#000;stop-opacity:.26071429" offset="1"/></linearGradient><linearGradient id="e"><stop style="stop-color:#000;stop-opacity:1" offset="0"/><stop style="stop-color:#000;stop-opacity:0" offset="1"/></linearGradient><linearGradient id="c"><stop style="stop-color:#000;stop-opacity:1" offset="0"/><stop style="stop-color:#000;stop-opacity:0" offset="1"/></linearGradient><linearGradient id="i"><stop style="stop-color:#999;stop-opacity:1" offset="0"/><stop style="stop-color:#616161;stop-opacity:.60714287" offset="1"/></linearGradient><linearGradient id="b"><stop style="stop-color:#b3b3b3;stop-opacity:1" offset="0"/><stop style="stop-color:#4d4d4d;stop-opacity:1" offset="1"/></linearGradient><linearGradient id="l"><stop style="stop-color:#000;stop-opacity:1" offset="0"/><stop style="stop-color:#fff;stop-opacity:.72857141" offset=".868"/><stop style="stop-color:#fcfcfc;stop-opacity:.32857144" offset="1"/></linearGradient><linearGradient xlink:href="#m" id="q" x1="80.264" y1="146.411" x2="133.774" y2="146.411" gradientUnits="userSpaceOnUse"/><linearGradient xlink:href="#k" id="v" x1="99.643" y1="103.977" x2="141.091" y2="103.977" gradientUnits="userSpaceOnUse"/><linearGradient xlink:href="#d" id="p" x1="50.145" y1="109.046" x2="109.863" y2="109.046" gradientUnits="userSpaceOnUse" spreadMethod="pad"/><linearGradient xlink:href="#i" id="n" x1="79.558" y1="75.168" x2="110.06" y2="75.168" gradientUnits="userSpaceOnUse"/><linearGradient xlink:href="#l" id="r" x1="131.364" y1="182.582" x2="166.264" y2="182.582" gradientUnits="userSpaceOnUse"/><radialGradient xlink:href="#g" id="u" cx="104.173" cy="95.097" fx="104.173" fy="95.097" r="23.825" gradientTransform="matrix(1 0 0 .93246 0 6.423)" gradientUnits="userSpaceOnUse"/><radialGradient xlink:href="#h" id="x" cx="124.347" cy="125.241" fx="124.347" fy="125.241" r="41.138" gradientTransform="matrix(1 0 0 1.56615 0 -70.905)" gradientUnits="userSpaceOnUse"/><radialGradient xlink:href="#f" id="s" cx="80.537" cy="112.083" fx="80.537" fy="112.083" r="30.994" gradientTransform="matrix(1 0 0 1.098 0 -10.984)" gradientUnits="userSpaceOnUse"/><radialGradient xlink:href="#b" id="o" cx="73.227" cy="69.991" fx="73.227" fy="69.991" r="7.11" gradientTransform="matrix(1 0 0 .98571 0 1)" gradientUnits="userSpaceOnUse"/><radialGradient xlink:href="#l" id="t" cx="133.393" cy="153.726" fx="133.393" fy="153.726" r="31.348" gradientTransform="matrix(1 0 0 1.1287 0 -19.784)" gradientUnits="userSpaceOnUse"/><radialGradient xlink:href="#a" id="w" cx="84.844" cy="105.724" fx="84.844" fy="105.724" r="38.708" gradientTransform="matrix(1 0 0 1.13452 0 -14.222)" gradientUnits="userSpaceOnUse"/></defs><g style="display:inline;opacity:1"><path style="opacity:1;fill:url(#n);stroke:url(#radialGradient61);stroke-width:.1;stroke-dasharray:none" d="m79.558 73.526 20.502.406 10 1.482-8.593 1.396-21.374-.083z" transform="translate(-46.136 -60.813)"/><path style="fill:url(#o);stroke:url(#radialGradient40);stroke-width:.264583" d="m66.408 63.3 1.437 4.016 12.296 9.365-.467-2.998z" transform="translate(-46.136 -60.813)"/><path style="fill:url(#p);fill-opacity:1;stroke:none;stroke-width:.264583" d="m109.819 75.446.044.336-8.63 1.557-51.088 65.307 50.715-65.898.684-.04z" transform="translate(-46.136 -60.813)"/><path style="display:inline;opacity:1;fill:url(#q);stroke:none;stroke-width:.1;stroke-dasharray:none;stroke-opacity:1" d="m83.409 116.703-3.028.7-.117.658 51.13 58.29 2.38-2.218z" transform="translate(-46.136 -60.813)"/><path style="display:inline;opacity:1;fill:url(#r);stroke:none;stroke-width:.1;stroke-dasharray:none;stroke-opacity:1" d="m133.917 173.966 6.423-.147 24.894 15.54 1.03 1.986-26.626-15.299-8.274.295z" transform="translate(-46.136 -60.813)"/><path style="fill:url(#s);stroke:none;stroke-width:.1;stroke-dasharray:none;stroke-opacity:1" d="m111.595 77.871-4.666 3.738-25.407 30.854L63.6 131.184l-6.95 7.404-7.197 7.513 29.175-28.032 19.784-22.976 10.85-13.402z" transform="translate(-46.136 -60.813)"/><path style="display:inline;opacity:1;fill:url(#t);stroke:none;stroke-width:.1;stroke-dasharray:none;stroke-opacity:1" d="m99.5 115.99 65.885 73.564-8.86-11.444-56.126-62.367z" transform="translate(-46.136 -60.813)"/><path style="fill:url(#u);stroke:none;stroke-width:.1;stroke-dasharray:none;stroke-opacity:1" d="M118.15 75.779c.78.685 3.043 1.9 4.394 3.069.988.855 2.058 1.712 2.685 2.86.8 1.461 1.14 3.182 1.22 4.847.08 1.632-.21 3.298-.732 4.847-.55 1.632-1.444 3.155-2.476 4.534-1.34 1.79-3.049 3.283-4.743 4.742a48.194 48.194 0 0 1-5.754 4.255 35.552 35.552 0 0 1-5.719 2.936c-2.079.83-4.006 1.664-6.12 2.402-1.892.66-3.952 1.355-5.876 1.915-4.566 1.33-13.74 3.836-13.74 3.836l-.888 1.399s6.9-1.579 11.051-2.82c2.56-.765 6.586-2.19 9.1-3.099 2.24-.81 4.497-1.688 6.672-2.661 1.903-.851 3.784-1.743 5.582-2.799 2.06-1.21 4.127-2.564 5.954-4.105 1.803-1.521 4.608-4.119 5.998-6.025 1.777-2.439 2.322-3.628 3.024-6.293.277-1.054.535-2.957.423-4.042-.251-2.426-.335-3.542-.788-4.845-.339-.975-1.07-2.375-2.539-3.744-1.97-1.835-3.045-2.436-5.162-3.637-.344-.195-.816-.624-1.092-.683-.17-.036-.459.4-.51.565-.151.496-.105 2.423.036 2.546z" transform="translate(-46.136 -60.813)"/><path style="opacity:1;fill:url(#v);stroke:none;stroke-width:.1;stroke-dasharray:none;stroke-opacity:1" d="M141.09 88.894s-2.11 4.696-3.42 6.583c-2.388 3.44-5.126 5.844-8.489 8.343-3.948 2.934-8.313 4.955-12.832 6.898-1.183.508-5.51 2.658-16.706 5.489l2.48 2.852s7.997-2.271 11.503-3.69c5.19-2.102 9.605-4.16 14.17-7.4 2.78-1.972 6.256-5.393 8.351-8.08 3.897-5 4.944-10.995 4.944-10.995z" transform="translate(-46.136 -60.813)"/><path style="opacity:1;fill:url(#w);stroke:url(#radialGradient25);stroke-width:.264583;stroke-opacity:1" d="m65.946 61.942.465 1.366L79.659 73.71l20.344.324 9.825 1.379.044.372-8.637 1.556-51.123 65.353-3.86 6.855 35.469-37.297 25.367-30.531 4.557-3.798 11.646-15.72z" transform="translate(-46.136 -60.813)"/><path style="fill:url(#x);stroke:none;stroke-width:.1;stroke-dasharray:none;stroke-opacity:1" d="m118.44 72.737 9.886-11.924s3.923 2.125 5.67 3.494c1.454 1.14 2.85 2.402 3.951 3.883 1.425 1.916 2.637 4.054 3.338 6.336.782 2.544.997 5.276.886 7.936-.116 2.775-.737 5.54-1.61 8.177-.462 1.397-1.396 3.188-2.213 4.412-1.305 1.958-3.405 3.96-4.647 5.188a38.105 38.105 0 0 1-2.955 2.61 41.854 41.854 0 0 1-3.25 2.364 64.151 64.151 0 0 1-5.195 3.053 61.778 61.778 0 0 1-5.22 2.462c-2.022.837-4.105 1.52-6.18 2.216a138.412 138.412 0 0 1-6.154 1.92c-1.659.471-5.012 1.286-5.012 1.286l12.996 14.135 40.497 44.78 12.258 14.605-25.136-15.522-6.71.1-26.744-30.687-23.687-26.57.134-.271.673-.174s4.168-1.07 6.233-1.672c1.982-.58 3.949-1.21 5.906-1.868a149.351 149.351 0 0 0 4.93-1.759c1.806-.679 3.615-1.358 5.385-2.128a66.846 66.846 0 0 0 4.386-2.084c1.861-.976 4.283-2.34 7.08-4.539 1.891-1.533 5.224-4.415 7.1-7.1 1.69-2.419 2.465-4.9 2.811-6.816.134-.738.177-1.492.205-2.242.03-2.042-.182-4.186-.98-6.09-.641-1.527-1.795-2.698-3.019-3.772-.86-.753-2.098-1.626-3.05-2.258-.925-.615-2.563-1.481-2.563-1.481z" transform="translate(-46.136 -60.813)"/></g></svg>